<mxfile host="app.diagrams.net" modified="2023-08-29T02:34:31.536Z" agent="Mozilla/5.0 (Windows NT 10.0; Win64; x64) AppleWebKit/537.36 (KHTML, like Gecko) Chrome/116.0.0.0 Safari/537.36" etag="gm1MbJuPCm5f2x7EUObm" version="21.6.9" type="github">
  <diagram name="Halaman-1" id="P_sOqb0KjQIxXa_cAtBQ">
    <mxGraphModel dx="954" dy="610" grid="1" gridSize="10" guides="1" tooltips="1" connect="1" arrows="1" fold="1" page="1" pageScale="1" pageWidth="827" pageHeight="1169" math="0" shadow="0">
      <root>
        <mxCell id="0" />
        <mxCell id="1" parent="0" />
        <mxCell id="5gBU19jdoaPc92KfbrZf-1" value="" style="rounded=0;whiteSpace=wrap;html=1;" vertex="1" parent="1">
          <mxGeometry x="260" y="90" width="300" height="400" as="geometry" />
        </mxCell>
        <mxCell id="5gBU19jdoaPc92KfbrZf-3" value="Game Tebak Angka" style="text;html=1;strokeColor=none;fillColor=none;align=center;verticalAlign=middle;whiteSpace=wrap;rounded=0;fontStyle=1" vertex="1" parent="1">
          <mxGeometry x="335" y="90" width="130" height="30" as="geometry" />
        </mxCell>
        <mxCell id="5gBU19jdoaPc92KfbrZf-4" value="Random Angka" style="ellipse;whiteSpace=wrap;html=1;" vertex="1" parent="1">
          <mxGeometry x="339" y="160" width="150" height="80" as="geometry" />
        </mxCell>
        <mxCell id="5gBU19jdoaPc92KfbrZf-5" value="Cek Angka" style="ellipse;whiteSpace=wrap;html=1;" vertex="1" parent="1">
          <mxGeometry x="339" y="270" width="150" height="80" as="geometry" />
        </mxCell>
        <mxCell id="5gBU19jdoaPc92KfbrZf-6" value="Menebak Angka" style="ellipse;whiteSpace=wrap;html=1;" vertex="1" parent="1">
          <mxGeometry x="335" y="380" width="150" height="80" as="geometry" />
        </mxCell>
        <mxCell id="5gBU19jdoaPc92KfbrZf-7" value="Pemain" style="shape=umlActor;verticalLabelPosition=bottom;verticalAlign=top;html=1;outlineConnect=0;" vertex="1" parent="1">
          <mxGeometry x="590" y="240" width="50" height="90" as="geometry" />
        </mxCell>
        <mxCell id="5gBU19jdoaPc92KfbrZf-18" style="edgeStyle=orthogonalEdgeStyle;rounded=0;orthogonalLoop=1;jettySize=auto;html=1;exitX=0.5;exitY=0.5;exitDx=0;exitDy=0;exitPerimeter=0;" edge="1" parent="1" source="5gBU19jdoaPc92KfbrZf-8">
          <mxGeometry relative="1" as="geometry">
            <mxPoint x="185" y="285" as="targetPoint" />
          </mxGeometry>
        </mxCell>
        <mxCell id="5gBU19jdoaPc92KfbrZf-8" value="Komputer" style="shape=umlActor;verticalLabelPosition=bottom;verticalAlign=top;html=1;outlineConnect=0;" vertex="1" parent="1">
          <mxGeometry x="160" y="240" width="50" height="90" as="geometry" />
        </mxCell>
        <mxCell id="5gBU19jdoaPc92KfbrZf-15" value="" style="endArrow=none;html=1;rounded=0;entryX=0;entryY=0.5;entryDx=0;entryDy=0;" edge="1" parent="1" target="5gBU19jdoaPc92KfbrZf-4">
          <mxGeometry width="50" height="50" relative="1" as="geometry">
            <mxPoint x="210" y="270" as="sourcePoint" />
            <mxPoint x="260" y="220" as="targetPoint" />
          </mxGeometry>
        </mxCell>
        <mxCell id="5gBU19jdoaPc92KfbrZf-17" value="" style="endArrow=none;html=1;rounded=0;exitX=0.5;exitY=0.5;exitDx=0;exitDy=0;exitPerimeter=0;entryX=0;entryY=0.5;entryDx=0;entryDy=0;" edge="1" parent="1" target="5gBU19jdoaPc92KfbrZf-5">
          <mxGeometry width="50" height="50" relative="1" as="geometry">
            <mxPoint x="210" y="270" as="sourcePoint" />
            <mxPoint x="345" y="295" as="targetPoint" />
          </mxGeometry>
        </mxCell>
        <mxCell id="5gBU19jdoaPc92KfbrZf-19" value="" style="endArrow=none;html=1;rounded=0;" edge="1" parent="1">
          <mxGeometry width="50" height="50" relative="1" as="geometry">
            <mxPoint x="475" y="400" as="sourcePoint" />
            <mxPoint x="590" y="270" as="targetPoint" />
          </mxGeometry>
        </mxCell>
      </root>
    </mxGraphModel>
  </diagram>
</mxfile>
